<mxfile host="app.diagrams.net" modified="2022-08-23T07:41:19.330Z" agent="5.0 (Macintosh; Intel Mac OS X 10_15_7) AppleWebKit/537.36 (KHTML, like Gecko) Chrome/104.0.5112.81 Safari/537.36 Edg/104.0.1293.54" etag="NUJgEOuDyth7f7xB-lFk" version="20.2.6" type="github">
  <diagram id="_LBW4SX0zCzGfV_m8QG4" name="第 1 页">
    <mxGraphModel dx="1884" dy="1259" grid="1" gridSize="10" guides="1" tooltips="1" connect="1" arrows="1" fold="1" page="1" pageScale="1" pageWidth="827" pageHeight="1169" math="0" shadow="0">
      <root>
        <mxCell id="0" />
        <mxCell id="1" parent="0" />
        <mxCell id="Vk17Rl6LJTauYdbx-DQ4-34" style="edgeStyle=orthogonalEdgeStyle;rounded=0;orthogonalLoop=1;jettySize=auto;html=1;exitX=1;exitY=0.25;exitDx=0;exitDy=0;entryX=0;entryY=0.5;entryDx=0;entryDy=0;" edge="1" parent="1" source="Vk17Rl6LJTauYdbx-DQ4-16" target="Vk17Rl6LJTauYdbx-DQ4-28">
          <mxGeometry relative="1" as="geometry" />
        </mxCell>
        <mxCell id="Vk17Rl6LJTauYdbx-DQ4-16" value="header" style="rounded=0;whiteSpace=wrap;html=1;" vertex="1" parent="1">
          <mxGeometry x="50" y="485" width="60" height="35" as="geometry" />
        </mxCell>
        <mxCell id="Vk17Rl6LJTauYdbx-DQ4-21" value="" style="rounded=0;whiteSpace=wrap;html=1;" vertex="1" parent="1">
          <mxGeometry x="50" y="520" width="60" height="35" as="geometry" />
        </mxCell>
        <mxCell id="Vk17Rl6LJTauYdbx-DQ4-22" value="" style="rounded=0;whiteSpace=wrap;html=1;" vertex="1" parent="1">
          <mxGeometry x="50" y="555" width="60" height="35" as="geometry" />
        </mxCell>
        <mxCell id="Vk17Rl6LJTauYdbx-DQ4-23" value="" style="rounded=0;whiteSpace=wrap;html=1;" vertex="1" parent="1">
          <mxGeometry x="50" y="585" width="60" height="35" as="geometry" />
        </mxCell>
        <mxCell id="Vk17Rl6LJTauYdbx-DQ4-25" value="L32" style="rounded=0;whiteSpace=wrap;html=1;" vertex="1" parent="1">
          <mxGeometry x="200" y="160" width="60" height="35" as="geometry" />
        </mxCell>
        <mxCell id="Vk17Rl6LJTauYdbx-DQ4-26" value="...." style="rounded=0;whiteSpace=wrap;html=1;" vertex="1" parent="1">
          <mxGeometry x="200" y="195" width="60" height="35" as="geometry" />
        </mxCell>
        <mxCell id="Vk17Rl6LJTauYdbx-DQ4-27" value="L6" style="rounded=0;whiteSpace=wrap;html=1;" vertex="1" parent="1">
          <mxGeometry x="200" y="230" width="60" height="35" as="geometry" />
        </mxCell>
        <mxCell id="Vk17Rl6LJTauYdbx-DQ4-28" value="L5" style="rounded=0;whiteSpace=wrap;html=1;" vertex="1" parent="1">
          <mxGeometry x="200" y="260" width="60" height="35" as="geometry" />
        </mxCell>
        <mxCell id="Vk17Rl6LJTauYdbx-DQ4-29" value="L4" style="rounded=0;whiteSpace=wrap;html=1;" vertex="1" parent="1">
          <mxGeometry x="200" y="295" width="60" height="35" as="geometry" />
        </mxCell>
        <mxCell id="Vk17Rl6LJTauYdbx-DQ4-30" value="L3" style="rounded=0;whiteSpace=wrap;html=1;" vertex="1" parent="1">
          <mxGeometry x="200" y="330" width="60" height="35" as="geometry" />
        </mxCell>
        <mxCell id="Vk17Rl6LJTauYdbx-DQ4-31" value="L2" style="rounded=0;whiteSpace=wrap;html=1;" vertex="1" parent="1">
          <mxGeometry x="200" y="365" width="60" height="35" as="geometry" />
        </mxCell>
        <mxCell id="Vk17Rl6LJTauYdbx-DQ4-45" style="edgeStyle=orthogonalEdgeStyle;rounded=0;orthogonalLoop=1;jettySize=auto;html=1;exitX=1;exitY=0.5;exitDx=0;exitDy=0;" edge="1" parent="1" source="Vk17Rl6LJTauYdbx-DQ4-32">
          <mxGeometry relative="1" as="geometry">
            <mxPoint x="380" y="417.5" as="targetPoint" />
          </mxGeometry>
        </mxCell>
        <mxCell id="Vk17Rl6LJTauYdbx-DQ4-32" value="L1" style="rounded=0;whiteSpace=wrap;html=1;" vertex="1" parent="1">
          <mxGeometry x="200" y="400" width="60" height="35" as="geometry" />
        </mxCell>
        <mxCell id="Vk17Rl6LJTauYdbx-DQ4-48" value="" style="rounded=0;whiteSpace=wrap;html=1;dashed=1;" vertex="1" parent="1">
          <mxGeometry x="510" y="160" width="60" height="35" as="geometry" />
        </mxCell>
        <mxCell id="Vk17Rl6LJTauYdbx-DQ4-49" value="" style="rounded=0;whiteSpace=wrap;html=1;dashed=1;" vertex="1" parent="1">
          <mxGeometry x="510" y="195" width="60" height="35" as="geometry" />
        </mxCell>
        <mxCell id="Vk17Rl6LJTauYdbx-DQ4-50" value="" style="rounded=0;whiteSpace=wrap;html=1;dashed=1;" vertex="1" parent="1">
          <mxGeometry x="510" y="230" width="60" height="35" as="geometry" />
        </mxCell>
        <mxCell id="Vk17Rl6LJTauYdbx-DQ4-51" value="" style="rounded=0;whiteSpace=wrap;html=1;dashed=1;" vertex="1" parent="1">
          <mxGeometry x="510" y="260" width="60" height="35" as="geometry" />
        </mxCell>
        <mxCell id="Vk17Rl6LJTauYdbx-DQ4-52" value="" style="rounded=0;whiteSpace=wrap;html=1;dashed=1;" vertex="1" parent="1">
          <mxGeometry x="510" y="295" width="60" height="35" as="geometry" />
        </mxCell>
        <mxCell id="Vk17Rl6LJTauYdbx-DQ4-53" value="" style="rounded=0;whiteSpace=wrap;html=1;dashed=1;" vertex="1" parent="1">
          <mxGeometry x="510" y="330" width="60" height="40" as="geometry" />
        </mxCell>
        <mxCell id="Vk17Rl6LJTauYdbx-DQ4-54" value="L2" style="rounded=0;whiteSpace=wrap;html=1;labelBorderColor=none;labelBackgroundColor=none;" vertex="1" parent="1">
          <mxGeometry x="510" y="365" width="60" height="35" as="geometry" />
        </mxCell>
        <mxCell id="Vk17Rl6LJTauYdbx-DQ4-55" value="L1" style="rounded=0;whiteSpace=wrap;html=1;" vertex="1" parent="1">
          <mxGeometry x="510" y="400" width="60" height="35" as="geometry" />
        </mxCell>
        <mxCell id="Vk17Rl6LJTauYdbx-DQ4-56" value="" style="rounded=0;whiteSpace=wrap;html=1;dashed=1;" vertex="1" parent="1">
          <mxGeometry x="380" y="160" width="60" height="35" as="geometry" />
        </mxCell>
        <mxCell id="Vk17Rl6LJTauYdbx-DQ4-57" value="" style="rounded=0;whiteSpace=wrap;html=1;dashed=1;" vertex="1" parent="1">
          <mxGeometry x="380" y="195" width="60" height="35" as="geometry" />
        </mxCell>
        <mxCell id="Vk17Rl6LJTauYdbx-DQ4-58" value="" style="rounded=0;whiteSpace=wrap;html=1;dashed=1;" vertex="1" parent="1">
          <mxGeometry x="380" y="230" width="60" height="35" as="geometry" />
        </mxCell>
        <mxCell id="Vk17Rl6LJTauYdbx-DQ4-59" value="" style="rounded=0;whiteSpace=wrap;html=1;dashed=1;" vertex="1" parent="1">
          <mxGeometry x="380" y="260" width="60" height="35" as="geometry" />
        </mxCell>
        <mxCell id="Vk17Rl6LJTauYdbx-DQ4-60" value="" style="rounded=0;whiteSpace=wrap;html=1;dashed=1;" vertex="1" parent="1">
          <mxGeometry x="380" y="295" width="60" height="35" as="geometry" />
        </mxCell>
        <mxCell id="Vk17Rl6LJTauYdbx-DQ4-61" value="" style="rounded=0;whiteSpace=wrap;html=1;dashed=1;" vertex="1" parent="1">
          <mxGeometry x="380" y="330" width="60" height="40" as="geometry" />
        </mxCell>
        <mxCell id="Vk17Rl6LJTauYdbx-DQ4-62" value="" style="rounded=0;whiteSpace=wrap;html=1;labelBorderColor=none;labelBackgroundColor=none;dashed=1;" vertex="1" parent="1">
          <mxGeometry x="380" y="365" width="60" height="35" as="geometry" />
        </mxCell>
        <mxCell id="Vk17Rl6LJTauYdbx-DQ4-63" value="L1" style="rounded=0;whiteSpace=wrap;html=1;" vertex="1" parent="1">
          <mxGeometry x="380" y="400" width="60" height="35" as="geometry" />
        </mxCell>
        <mxCell id="Vk17Rl6LJTauYdbx-DQ4-64" value="" style="rounded=0;whiteSpace=wrap;html=1;dashed=1;" vertex="1" parent="1">
          <mxGeometry x="170" y="630" width="60" height="35" as="geometry" />
        </mxCell>
        <mxCell id="Vk17Rl6LJTauYdbx-DQ4-65" value="" style="rounded=0;whiteSpace=wrap;html=1;dashed=1;" vertex="1" parent="1">
          <mxGeometry x="170" y="665" width="60" height="35" as="geometry" />
        </mxCell>
        <mxCell id="Vk17Rl6LJTauYdbx-DQ4-66" value="" style="rounded=0;whiteSpace=wrap;html=1;dashed=1;" vertex="1" parent="1">
          <mxGeometry x="170" y="700" width="60" height="35" as="geometry" />
        </mxCell>
        <mxCell id="Vk17Rl6LJTauYdbx-DQ4-67" value="" style="rounded=0;whiteSpace=wrap;html=1;dashed=1;" vertex="1" parent="1">
          <mxGeometry x="170" y="730" width="60" height="35" as="geometry" />
        </mxCell>
        <mxCell id="Vk17Rl6LJTauYdbx-DQ4-68" value="" style="rounded=0;whiteSpace=wrap;html=1;dashed=1;" vertex="1" parent="1">
          <mxGeometry x="170" y="765" width="60" height="35" as="geometry" />
        </mxCell>
        <mxCell id="Vk17Rl6LJTauYdbx-DQ4-69" value="L3" style="rounded=0;whiteSpace=wrap;html=1;" vertex="1" parent="1">
          <mxGeometry x="170" y="800" width="60" height="40" as="geometry" />
        </mxCell>
        <mxCell id="Vk17Rl6LJTauYdbx-DQ4-70" value="L2" style="rounded=0;whiteSpace=wrap;html=1;labelBorderColor=none;labelBackgroundColor=none;" vertex="1" parent="1">
          <mxGeometry x="170" y="835" width="60" height="35" as="geometry" />
        </mxCell>
        <mxCell id="Vk17Rl6LJTauYdbx-DQ4-71" value="L1" style="rounded=0;whiteSpace=wrap;html=1;" vertex="1" parent="1">
          <mxGeometry x="170" y="870" width="60" height="35" as="geometry" />
        </mxCell>
        <mxCell id="Vk17Rl6LJTauYdbx-DQ4-72" value="" style="rounded=0;whiteSpace=wrap;html=1;dashed=1;" vertex="1" parent="1">
          <mxGeometry x="590" y="600" width="60" height="35" as="geometry" />
        </mxCell>
        <mxCell id="Vk17Rl6LJTauYdbx-DQ4-73" value="" style="rounded=0;whiteSpace=wrap;html=1;dashed=1;" vertex="1" parent="1">
          <mxGeometry x="590" y="635" width="60" height="35" as="geometry" />
        </mxCell>
        <mxCell id="Vk17Rl6LJTauYdbx-DQ4-74" value="" style="rounded=0;whiteSpace=wrap;html=1;dashed=1;" vertex="1" parent="1">
          <mxGeometry x="590" y="670" width="60" height="35" as="geometry" />
        </mxCell>
        <mxCell id="Vk17Rl6LJTauYdbx-DQ4-75" value="" style="rounded=0;whiteSpace=wrap;html=1;dashed=1;" vertex="1" parent="1">
          <mxGeometry x="590" y="700" width="60" height="35" as="geometry" />
        </mxCell>
        <mxCell id="Vk17Rl6LJTauYdbx-DQ4-76" value="L4" style="rounded=0;whiteSpace=wrap;html=1;" vertex="1" parent="1">
          <mxGeometry x="590" y="735" width="60" height="35" as="geometry" />
        </mxCell>
        <mxCell id="Vk17Rl6LJTauYdbx-DQ4-77" value="L3" style="rounded=0;whiteSpace=wrap;html=1;" vertex="1" parent="1">
          <mxGeometry x="590" y="770" width="60" height="40" as="geometry" />
        </mxCell>
        <mxCell id="Vk17Rl6LJTauYdbx-DQ4-78" value="L2" style="rounded=0;whiteSpace=wrap;html=1;labelBorderColor=none;labelBackgroundColor=none;" vertex="1" parent="1">
          <mxGeometry x="590" y="805" width="60" height="35" as="geometry" />
        </mxCell>
        <mxCell id="Vk17Rl6LJTauYdbx-DQ4-79" value="L1" style="rounded=0;whiteSpace=wrap;html=1;" vertex="1" parent="1">
          <mxGeometry x="590" y="840" width="60" height="35" as="geometry" />
        </mxCell>
        <mxCell id="Vk17Rl6LJTauYdbx-DQ4-80" style="edgeStyle=orthogonalEdgeStyle;rounded=0;orthogonalLoop=1;jettySize=auto;html=1;exitX=1;exitY=0.5;exitDx=0;exitDy=0;entryX=0;entryY=0.5;entryDx=0;entryDy=0;" edge="1" parent="1" source="Vk17Rl6LJTauYdbx-DQ4-31" target="Vk17Rl6LJTauYdbx-DQ4-54">
          <mxGeometry relative="1" as="geometry" />
        </mxCell>
      </root>
    </mxGraphModel>
  </diagram>
</mxfile>
